<svg xmlns="http://www.w3.org/2000/svg" xmlns:xlink="http://www.w3.org/1999/xlink" xmlns:sketch="http://www.bohemiancoding.com/sketch/ns" viewBox="0 0 30 37.5" version="1.1" x="0px" y="0px"><title>nature_003-tree-plant-garden-farm</title><desc>Created with Sketch.</desc><g stroke="none" stroke-width="1" fill="none" fill-rule="evenodd" sketch:type="MSPage"><g sketch:type="MSArtboardGroup" transform="translate(-135.000000, -45.000000)" fill="#000000"><path d="M150,65.9810552 C146.643776,65.7257427 144,62.9216149 144,59.5 C144,57.5815607 144.83111,55.8572375 146.152917,54.6674442 C146.05318,54.2951315 146,53.9037761 146,53.5 C146,51.8326381 146.906824,50.3770764 148.254184,49.5996025 C148.091401,49.2677618 148,48.8945548 148,48.5 C148,47.1192881 149.119288,46 150.5,46 C151.880712,46 153,47.1192881 153,48.5 C153,48.8945548 152.908599,49.2677618 152.745816,49.5996025 C154.093176,50.3770764 155,51.8326381 155,53.5 C155,53.9037761 154.94682,54.2951315 154.847083,54.6674442 C156.16889,55.8572375 157,57.5815607 157,59.5 C157,62.9216149 154.356224,65.7257427 151,65.9810552 L151,61.7071068 L154.853309,57.8537981 C155.050493,57.6566139 155.048816,57.3417088 154.853553,57.1464466 C154.664002,56.956895 154.341073,56.9518202 154.145027,57.1478665 L151,60.2928932 L151,54.7071068 L152.8532,52.8539069 C153.045872,52.6612348 153.048816,52.3417088 152.853553,52.1464466 C152.664002,51.956895 152.344028,51.9488653 152.151627,52.1412666 L151,53.2928932 L151,49.4993845 C151,49.2161264 150.776142,49 150.5,49 C150.231934,49 150,49.223582 150,49.4993845 L150,53.2928932 L148.848373,52.1412666 C148.656937,51.9498299 148.341709,51.9511845 148.146447,52.1464466 C147.956895,52.3359982 147.951343,52.6584495 148.1468,52.8539069 L150,54.7071068 L150,60.2928932 L146.854973,57.1478665 C146.65192,56.9448135 146.341709,56.9511845 146.146447,57.1464466 C145.956895,57.3359982 145.951294,57.6584008 146.146691,57.8537981 L150,61.7071068 L150,65.9810552 Z M150,66.9835977 C146.090984,66.7263047 143,63.4741213 143,59.5 C143,57.4979087 143.784481,55.6790427 145.062827,54.3340174 C145.021454,54.0620456 145,53.7835282 145,53.5 C145,51.7596301 145.808344,50.2080591 147.070064,49.2002545 C147.024119,48.9739987 147,48.739816 147,48.5 C147,46.5670034 148.567003,45 150.5,45 C152.432997,45 154,46.5670034 154,48.5 C154,48.739816 153.975881,48.9739987 153.929936,49.2002545 C155.191656,50.2080591 156,51.7596301 156,53.5 C156,53.7835282 155.978546,54.0620456 155.937173,54.3340174 C157.215519,55.6790427 158,57.4979087 158,59.5 C158,63.4741213 154.909016,66.7263047 151,66.9835977 L151,74 L152.502301,74 C152.777173,74 153,74.2319336 153,74.5 C153,74.7761424 152.785156,75 152.502301,75 L148.497699,75 C148.222827,75 148,74.7680664 148,74.5 C148,74.2238576 148.214844,74 148.497699,74 L150,74 L150,66.9835977 Z" sketch:type="MSShapeGroup"/></g></g></svg>