<svg xmlns="http://www.w3.org/2000/svg" xmlns:xlink="http://www.w3.org/1999/xlink" xmlns:sketch="http://www.bohemiancoding.com/sketch/ns" viewBox="0 0 30 37.5" version="1.1" x="0px" y="0px"><title>weather_003-sun-day-sunny-forecast</title><desc>Created with Sketch.</desc><g stroke="none" stroke-width="1" fill="none" fill-rule="evenodd" sketch:type="MSPage"><g sketch:type="MSArtboardGroup" transform="translate(-135.000000, -45.000000)" fill="#000000"><path d="M150.5,64 C152.985281,64 155,61.9852814 155,59.5 C155,57.0147186 152.985281,55 150.5,55 C148.014719,55 146,57.0147186 146,59.5 C146,61.9852814 148.014719,64 150.5,64 Z M150.5,63 C152.432997,63 154,61.4329966 154,59.5 C154,57.5670034 152.432997,56 150.5,56 C148.567003,56 147,57.5670034 147,59.5 C147,61.4329966 148.567003,63 150.5,63 Z M151,51.5 C151,51.2238576 150.776142,51 150.5,51 C150.223858,51 150,51.2238576 150,51.5 L150,52.5 C150,52.7761424 150.223858,53 150.5,53 C150.776142,53 151,52.7761424 151,52.5 L151,51.5 Z M156.510408,54.1966991 C156.70567,54.001437 156.70567,53.6848545 156.510408,53.4895924 C156.315145,53.2943302 155.998563,53.2943302 155.803301,53.4895924 L155.096194,54.1966991 C154.900932,54.3919613 154.900932,54.7085438 155.096194,54.9038059 C155.291456,55.0990681 155.608039,55.0990681 155.803301,54.9038059 L156.510408,54.1966991 Z M158.5,60 C158.776142,60 159,59.7761424 159,59.5 C159,59.2238576 158.776142,59 158.5,59 L157.5,59 C157.223858,59 157,59.2238576 157,59.5 C157,59.7761424 157.223858,60 157.5,60 L158.5,60 Z M155.803301,65.5104076 C155.998563,65.7056698 156.315145,65.7056698 156.510408,65.5104076 C156.70567,65.3151455 156.70567,64.998563 156.510408,64.8033009 L155.803301,64.0961941 C155.608039,63.9009319 155.291456,63.9009319 155.096194,64.0961941 C154.900932,64.2914562 154.900932,64.6080387 155.096194,64.8033009 L155.803301,65.5104076 Z M150,67.5 C150,67.7761424 150.223858,68 150.5,68 C150.776142,68 151,67.7761424 151,67.5 L151,66.5 C151,66.2238576 150.776142,66 150.5,66 C150.223858,66 150,66.2238576 150,66.5 L150,67.5 Z M144.489592,64.8033009 C144.29433,64.998563 144.29433,65.3151455 144.489592,65.5104076 C144.684855,65.7056698 145.001437,65.7056698 145.196699,65.5104076 L145.903806,64.8033009 C146.099068,64.6080387 146.099068,64.2914562 145.903806,64.0961941 C145.708544,63.9009319 145.391961,63.9009319 145.196699,64.0961941 L144.489592,64.8033009 Z M142.5,59 C142.223858,59 142,59.2238576 142,59.5 C142,59.7761424 142.223858,60 142.5,60 L143.5,60 C143.776142,60 144,59.7761424 144,59.5 C144,59.2238576 143.776142,59 143.5,59 L142.5,59 Z M145.196699,53.4895924 C145.001437,53.2943302 144.684855,53.2943302 144.489592,53.4895924 C144.29433,53.6848545 144.29433,54.001437 144.489592,54.1966991 L145.196699,54.9038059 C145.391961,55.0990681 145.708544,55.0990681 145.903806,54.9038059 C146.099068,54.7085438 146.099068,54.3919613 145.903806,54.1966991 L145.196699,53.4895924 Z" sketch:type="MSShapeGroup"/></g></g></svg>