<svg xmlns="http://www.w3.org/2000/svg" xmlns:xlink="http://www.w3.org/1999/xlink" xmlns:sketch="http://www.bohemiancoding.com/sketch/ns" viewBox="0 0 30 37.5" version="1.1" x="0px" y="0px"><title>weather_027-hail-cloud-rain-forecast</title><desc>Created with Sketch.</desc><g stroke="none" stroke-width="1" fill="none" fill-rule="evenodd" sketch:type="MSPage"><g sketch:type="MSArtboardGroup" transform="translate(-135.000000, -135.000000)" fill="#000000"><path d="M141,147.5 C141,143.910149 143.910149,141 147.5,141 C150.931983,141 153.767133,143.668552 153.986394,147.075748 C154.010274,147.446838 154.416466,147.662937 154.737556,147.475376 C155.267959,147.165548 155.871294,147 156.5,147 C158.432997,147 160,148.567003 160,150.5 C160,152.270475 158.677907,153.756562 156.936924,153.973046 C156.662892,154.007121 156.468368,154.256891 156.502443,154.530923 C156.536517,154.804955 156.786287,154.999478 157.060319,154.965404 C159.300523,154.686844 161,152.776561 161,150.5 C161,148.014719 158.985281,146 156.5,146 C155.692826,146 155.209999,146.18 154.910004,146.302418 C154.329922,142.714983 151.218769,140 147.5,140 C143.357864,140 140,143.357864 140,147.5 C140,151.243322 142.758692,154.399045 146.429195,154.924072 C146.702555,154.963174 146.955855,154.77327 146.994957,154.49991 C147.034058,154.22655 146.844154,153.97325 146.570794,153.934148 C143.391176,153.479337 141,150.744022 141,147.5 Z M153.562913,157.336265 C153.500794,157.605329 153.668557,157.873807 153.937622,157.935925 C154.206687,157.998044 154.475164,157.830281 154.537283,157.561216 L155.886989,151.714995 C155.949108,151.44593 155.781345,151.177453 155.51228,151.115335 C155.243215,151.053216 154.974738,151.220979 154.912619,151.490044 L153.562913,157.336265 Z M153.48772,159.884665 C153.756785,159.946784 154.025262,159.779021 154.087381,159.509956 C154.149499,159.240891 153.981736,158.972414 153.712671,158.910295 C153.443606,158.848177 153.175129,159.01594 153.113011,159.285005 C153.050892,159.55407 153.218655,159.822547 153.48772,159.884665 Z M150.562913,157.336265 C150.500794,157.605329 150.668557,157.873807 150.937622,157.935925 C151.206687,157.998044 151.475164,157.830281 151.537283,157.561216 L152.886989,151.714995 C152.949108,151.44593 152.781345,151.177453 152.51228,151.115335 C152.243215,151.053216 151.974738,151.220979 151.912619,151.490044 L150.562913,157.336265 Z M150.48772,159.884665 C150.756785,159.946784 151.025262,159.779021 151.087381,159.509956 C151.149499,159.240891 150.981736,158.972414 150.712671,158.910295 C150.443606,158.848177 150.175129,159.01594 150.113011,159.285005 C150.050892,159.55407 150.218655,159.822547 150.48772,159.884665 Z M147.562913,157.336265 C147.500794,157.605329 147.668557,157.873807 147.937622,157.935925 C148.206687,157.998044 148.475164,157.830281 148.537283,157.561216 L149.886989,151.714995 C149.949108,151.44593 149.781345,151.177453 149.51228,151.115335 C149.243215,151.053216 148.974738,151.220979 148.912619,151.490044 L147.562913,157.336265 Z M147.48772,159.884665 C147.756785,159.946784 148.025262,159.779021 148.087381,159.509956 C148.149499,159.240891 147.981736,158.972414 147.712671,158.910295 C147.443606,158.848177 147.175129,159.01594 147.113011,159.285005 C147.050892,159.55407 147.218655,159.822547 147.48772,159.884665 Z" sketch:type="MSShapeGroup"/></g></g></svg>