<svg xmlns="http://www.w3.org/2000/svg" xmlns:xlink="http://www.w3.org/1999/xlink" xmlns:sketch="http://www.bohemiancoding.com/sketch/ns" viewBox="0 0 30 37.5" version="1.1" x="0px" y="0px"><title>transport_033-airplane_mode_on-aircraft-flight-travel</title><desc>Created with Sketch.</desc><g stroke="none" stroke-width="1" fill="none" fill-rule="evenodd" sketch:type="MSPage"><g sketch:type="MSArtboardGroup" transform="translate(-135.000000, -180.000000)" fill="#000000"><path d="M147.572598,196.051908 C147.791698,200.891165 147.989998,205.222397 147.989998,205.222397 L144.751931,207.065878 C144.521528,207.197537 144.434111,207.486255 144.552786,207.723607 L145.552786,209.723607 C145.657591,209.933215 145.893916,210.041909 146.121268,209.985071 L150,209.006042 L153.878732,209.985071 C154.106084,210.041909 154.342409,209.933215 154.447214,209.723607 L155.447214,207.723607 C155.565889,207.486255 155.478472,207.197537 155.248069,207.065878 L152.013196,205.222396 C152.013196,205.222396 152.208013,200.890191 152.424525,196.051138 L163.370638,198.982976 C163.688188,199.068029 164,198.828743 164,198.5 L164,196.5 C164,196.325268 163.908784,196.163211 163.759408,196.072557 L152.722428,189.374384 C152.879352,185.84362 153,183.097402 153,183 C153,181.343146 151.656854,180 150,180 C148.343146,180 147,181.343146 147,183 C147,183.206685 147.117871,185.916584 147.27227,189.377601 L136.240592,196.072557 C136.091216,196.163211 136,196.325268 136,196.5 L136,198.5 C136,198.828743 136.311812,199.068029 136.629362,198.982976 L147.572598,196.051908 L147.572598,196.051908 Z M147.526324,195.029107 C147.457644,193.509907 147.388156,191.96753 147.323178,190.516501 L137,196.78241 L137,197.850647 L147.526324,195.029107 L147.526324,195.029107 Z M152.470278,195.028196 C152.538246,193.508074 152.607139,191.964876 152.671759,190.513428 L163,196.78241 L163,197.850647 L152.470278,195.028196 L152.470278,195.028196 Z M148.99944,205.476351 C148.99163,205.311407 148,183.573939 148,183 C148,181.895431 148.895431,181 150,181 C151.104569,181 152,181.895431 152,183 C152,183.253016 151.008333,205.306222 151.000521,205.477177 C150.991957,205.664597 151.089035,205.841038 151.251931,205.934122 L154.339996,207.701782 L153.730003,208.919998 L150.121268,208.014929 C150.041648,207.995024 149.958352,207.995024 149.878732,208.014929 L146.267978,208.917922 L145.656004,207.701016 L148.748069,205.934122 C148.911224,205.840891 149.008328,205.664054 148.99944,205.476351 L148.99944,205.476351 Z" sketch:type="MSShapeGroup"/></g></g></svg>