<svg xmlns="http://www.w3.org/2000/svg" xmlns:xlink="http://www.w3.org/1999/xlink" xmlns:sketch="http://www.bohemiancoding.com/sketch/ns" viewBox="0 0 30 37.5" version="1.1" x="0px" y="0px"><title>nature_002-tree-plant-garden-farm</title><desc>Created with Sketch.</desc><g stroke="none" stroke-width="1" fill="none" fill-rule="evenodd" sketch:type="MSPage"><g sketch:type="MSArtboardGroup" transform="translate(-90.000000, -45.000000)" fill="#000000"><path d="M106,62.9855382 C110.46169,62.7267293 114,59.026573 114,54.5 C114,49.8055796 110.19442,46 105.5,46 C100.80558,46 97,49.8055796 97,54.5 C97,59.026573 100.53831,62.7267293 105,62.9855382 L105,74 L103.497699,74 C103.214844,74 103,74.2238576 103,74.5 C103,74.7680664 103.222827,75 103.497699,75 L107.502301,75 C107.785156,75 108,74.7761424 108,74.5 C108,74.2319336 107.777173,74 107.502301,74 L106,74 L106,62.9855382 Z M106,61.9835977 C109.909016,61.7263047 113,58.4741213 113,54.5 C113,50.3578644 109.642136,47 105.5,47 C101.357864,47 98,50.3578644 98,54.5 C98,58.4741213 101.090984,61.7263047 105,61.9835977 L105,54.7071068 L103.1468,52.8539069 C102.951343,52.6584495 102.956895,52.3359982 103.146447,52.1464466 C103.341709,51.9511845 103.656937,51.9498299 103.848373,52.1412666 L105,53.2928932 L105,50.4993845 C105,50.223582 105.231934,50 105.5,50 C105.776142,50 106,50.2161264 106,50.4993845 L106,58.2928932 L109.145027,55.1478665 C109.341073,54.9518202 109.664002,54.956895 109.853553,55.1464466 C110.048816,55.3417088 110.050493,55.6566139 109.853309,55.8537981 L106,59.7071068 L106,61.9835977 Z" sketch:type="MSShapeGroup"/></g></g></svg>