<svg xmlns="http://www.w3.org/2000/svg" xmlns:xlink="http://www.w3.org/1999/xlink" xmlns:sketch="http://www.bohemiancoding.com/sketch/ns" viewBox="0 0 30 37.5" version="1.1" x="0px" y="0px"><title>transport_001-bicycle-vehicle-bike-traffic-workout</title><desc>Created with Sketch.</desc><g stroke="none" stroke-width="1" fill="none" fill-rule="evenodd" sketch:type="MSPage"><g sketch:type="MSArtboardGroup" transform="translate(-45.000000, -45.000000)" fill="#000000"><g sketch:type="MSLayerGroup" transform="translate(47.000000, 51.000000)"><path d="M11.0095215,1.12261963 L7.99047852,1.87738037 C7.71959471,1.94510132 7.5,2.23193359 7.5,2.5 C7.5,2.77614237 7.71505737,3 7.99047852,3 L11.0095215,3 C11.2804053,3 11.5,2.78596497 11.5,2.49531555 L11.5,1.50468445 C11.5,1.22595492 11.2849426,1.05376434 11.0095215,1.12261963 Z" sketch:type="MSShapeGroup" transform="translate(9.500000, 2.053725) scale(-1, 1) translate(-9.500000, -2.053725) "/><path d="M18.3109858,1.03710298 C18.0674864,1.1365308 17.9426477,1.40760773 18.0253793,1.65727423 L21.5041391,12.1554432 C21.5909992,12.417569 21.8739082,12.5596498 22.136034,12.4727897 C22.3981598,12.3859295 22.5402406,12.1030205 22.4533805,11.8408947 L19.1318283,1.78208328 L20.6764409,1.15137358 C20.9320919,1.04698395 21.0547134,0.755113377 20.9503238,0.499462412 C20.8459341,0.243811447 20.5540636,0.12118991 20.2984126,0.225579543 L18.3109858,1.03710298 Z" sketch:type="MSShapeGroup"/><path d="M19.2961484,4.16596353 L19.0793399,3.18974936 L10.9089298,5.00432456 L11.1257382,5.98053872 L19.2961484,4.16596353 Z" sketch:type="MSShapeGroup"/><path d="M13.1518401,11.8994245 L14.0637361,11.4890032 L9.94142165,2.32982354 L9.02952562,2.74024482 L13.1518401,11.8994245 Z" sketch:type="MSShapeGroup"/><path d="M5.18726365,11.1563125 C4.88561196,11.4750476 5.1115691,12 5.55041504,12 L13.7583008,12 C13.9098852,12 14.0532854,11.9312331 14.1481868,11.8130317 L19.7563411,4.82798534 L18.976569,4.20192188 L13.5161745,10.9999999 L6.70434565,10.9999999 L11.6525191,5.77972261 L10.9262163,5.0923477 L5.18726365,11.1563125 Z" sketch:type="MSShapeGroup"/><path d="M22,17 C24.7614237,17 27,14.7614237 27,12 C27,9.23857625 24.7614237,7 22,7 C19.2385763,7 17,9.23857625 17,12 C17,14.7614237 19.2385763,17 22,17 Z M22,16 C24.209139,16 26,14.209139 26,12 C26,9.790861 24.209139,8 22,8 C19.790861,8 18,9.790861 18,12 C18,14.209139 19.790861,16 22,16 Z" sketch:type="MSShapeGroup"/><path d="M5,17 C7.76142375,17 10,14.7614237 10,12 C10,9.23857625 7.76142375,7 5,7 C2.23857625,7 0,9.23857625 0,12 C0,14.7614237 2.23857625,17 5,17 Z M5,16 C7.209139,16 9,14.209139 9,12 C9,9.790861 7.209139,8 5,8 C2.790861,8 1,9.790861 1,12 C1,14.209139 2.790861,16 5,16 Z" sketch:type="MSShapeGroup"/></g></g></g></svg>