<svg xmlns="http://www.w3.org/2000/svg" xmlns:xlink="http://www.w3.org/1999/xlink" xmlns:sketch="http://www.bohemiancoding.com/sketch/ns" viewBox="0 0 30 37.5" version="1.1" x="0px" y="0px"><title>map_002-pin-marker-location-place</title><desc>Created with Sketch.</desc><g stroke="none" stroke-width="1" fill="none" fill-rule="evenodd" sketch:type="MSPage"><g sketch:type="MSArtboardGroup" transform="translate(-90.000000, -45.000000)" fill="#000000"><path d="M106.469058,59.9282532 C109.599284,59.460358 112,56.7605377 112,53.5 C112,49.9101491 109.089851,47 105.5,47 C101.910149,47 99,49.9101491 99,53.5 C99,56.7605377 101.400716,59.460358 104.530942,59.9282532 L104.983364,73.5009232 C104.992552,73.7765557 105.231934,74 105.5,74 C105.776142,74 106.007456,73.7763174 106.016636,73.5009232 L106.469058,59.9282532 Z M105.5,59 C108.537566,59 111,56.5375661 111,53.5 C111,50.4624339 108.537566,48 105.5,48 C102.462434,48 100,50.4624339 100,53.5 C100,56.5375661 102.462434,59 105.5,59 Z" sketch:type="MSShapeGroup"/></g></g></svg>