<svg xmlns="http://www.w3.org/2000/svg" xmlns:xlink="http://www.w3.org/1999/xlink" xmlns:sketch="http://www.bohemiancoding.com/sketch/ns" viewBox="0 0 30 37.5" version="1.1" x="0px" y="0px"><title>map_006-flag-mark-pin-location</title><desc>Created with Sketch.</desc><g stroke="none" stroke-width="1" fill="none" fill-rule="evenodd" sketch:type="MSPage"><g sketch:type="MSArtboardGroup" transform="translate(-270.000000, -45.000000)" fill="#000000"><path d="M294.5,48 C294.945452,48 295.168536,48.538571 294.853553,48.8535534 L290.206542,53.4994356 L294.854024,58.1464293 C295.169031,58.4614047 294.945952,59 294.500488,59 L279,59 L279,72.5 C279,72.7761424 278.776142,73 278.5,73 C278.223858,73 278,72.7761424 278,72.5 L278,48.5 C278,48.2238576 278.223858,48 278.5,48 L294.5,48 Z M279,58 L293.285232,58 L289.146464,53.8535707 C288.951185,53.6583113 288.951178,53.3417155 289.146447,53.1464466 L293.285233,49 L279,49 L279,58 Z" sketch:type="MSShapeGroup"/></g></g></svg>