<svg xmlns="http://www.w3.org/2000/svg" xmlns:xlink="http://www.w3.org/1999/xlink" xmlns:sketch="http://www.bohemiancoding.com/sketch/ns" viewBox="0 0 30 37.5" version="1.1" x="0px" y="0px"><title>transport_010-bus-public-vehicle-traffic-wagon-conveyance</title><desc>Created with Sketch.</desc><g stroke="none" stroke-width="1" fill="none" fill-rule="evenodd" sketch:type="MSPage"><g sketch:type="MSArtboardGroup" transform="translate(-450.000000, -45.000000)" fill="#000000"><path d="M474,71 L474.997538,71 C475.560542,71 476,70.5519738 476,69.9993054 L476,54 L477,54 L477,56.9906311 C477,57.5480902 477.44266,58 477.998957,58 L479.001043,58 C479.552752,58 480,57.5562834 480,57.0001925 L480,53.9998075 C480,53.4476291 479.552635,53 479.001846,53 L476,53 L476,50.990053 C476,48.7842933 474.20486,47 471.990442,47 L458.009558,47 C455.800352,47 454,48.7864076 454,50.990053 L454,53 L450.998154,53 C450.446889,53 450,53.4437166 450,53.9998075 L450,57.0001925 C450,57.5523709 450.44266,58 450.998957,58 L452.001043,58 C452.552752,58 453,57.5566468 453,56.9906311 L453,54 L454,54 L454,69.9993054 C454,70.5525308 454.448817,71 455.002462,71 L456,71 C456,72.3807119 457.119288,73.5 458.5,73.5 C459.880712,73.5 461,72.3807119 461,71 L469,71 C469,72.3807119 470.119288,73.5 471.5,73.5 C472.880712,73.5 474,72.3807119 474,71 Z M473,71 L470,71 C470,71.8284271 470.671573,72.5 471.5,72.5 C472.328427,72.5 473,71.8284271 473,71 Z M457,71 L460,71 C460,71.8284271 459.328427,72.5 458.5,72.5 C457.671573,72.5 457,71.8284271 457,71 Z M455,53 L455,51.0013869 C455,49.3437667 456.343312,48 457.994202,48 L472.005798,48 C473.65945,48 475,49.3430813 475,51.0013869 L475,53 L455,53 Z M455,54 L455,62 L475,62 L475,54 L455,54 Z M475,70 L455,70 L455,63 L475,63 L475,70 Z M456.490479,66 L459.509521,66 C459.780405,66 460,66.2319336 460,66.5 C460,66.7761424 459.784943,67 459.509521,67 L456.490479,67 C456.219595,67 456,66.7680664 456,66.5 C456,66.2238576 456.215057,66 456.490479,66 Z M470.490479,66 L473.509521,66 C473.780405,66 474,66.2319336 474,66.5 C474,66.7761424 473.784943,67 473.509521,67 L470.490479,67 C470.219595,67 470,66.7680664 470,66.5 C470,66.2238576 470.215057,66 470.490479,66 Z M461.500436,50 L468.499564,50 C468.775947,50 469,50.2319336 469,50.5 C469,50.7761424 468.769203,51 468.499564,51 L461.500436,51 C461.224053,51 461,50.7680664 461,50.5 C461,50.2238576 461.230797,50 461.500436,50 Z M452,54 L452,57 L451,57 L451,54 L452,54 Z M479,54 L479,57 L478,57 L478,54 L479,54 Z" sketch:type="MSShapeGroup"/></g></g></svg>