<svg xmlns="http://www.w3.org/2000/svg" xmlns:xlink="http://www.w3.org/1999/xlink" xmlns:sketch="http://www.bohemiancoding.com/sketch/ns" viewBox="0 0 30 37.5" version="1.1" x="0px" y="0px"><title>weather_004-sunrise-sun-morning-forecast</title><desc>Created with Sketch.</desc><g stroke="none" stroke-width="1" fill="none" fill-rule="evenodd" sketch:type="MSPage"><g sketch:type="MSArtboardGroup" transform="translate(-180.000000, -45.000000)" fill="#000000"><path d="M195.5,59 C193.014719,59 191,61.0147186 191,63.5 C191,63.7761424 191.223858,64 191.5,64 C191.776142,64 192,63.7761424 192,63.5 C192,61.5670034 193.567003,60 195.5,60 C197.432997,60 199,61.5670034 199,63.5 C199,63.7761424 199.223858,64 199.5,64 C199.776142,64 200,63.7761424 200,63.5 C200,61.0147186 197.985281,59 195.5,59 Z M196,53.5 C196,53.2238576 195.776142,53 195.5,53 C195.223858,53 195,53.2238576 195,53.5 L195,56.5 C195,56.7761424 195.223858,57 195.5,57 C195.776142,57 196,56.7761424 196,56.5 L196,53.5 Z M202.924621,56.7824856 C203.119883,56.5872234 203.119883,56.2706409 202.924621,56.0753788 C202.729359,55.8801167 202.412777,55.8801167 202.217514,56.0753788 L200.096194,58.1966991 C199.900932,58.3919613 199.900932,58.7085438 200.096194,58.9038059 C200.291456,59.0990681 200.608039,59.0990681 200.803301,58.9038059 L202.924621,56.7824856 Z M205.5,64 C205.776142,64 206,63.7761424 206,63.5 C206,63.2238576 205.776142,63 205.5,63 L202.5,63 C202.223858,63 202,63.2238576 202,63.5 C202,63.7761424 202.223858,64 202.5,64 L205.5,64 Z M185.5,63 C185.223858,63 185,63.2238576 185,63.5 C185,63.7761424 185.223858,64 185.5,64 L188.5,64 C188.776142,64 189,63.7761424 189,63.5 C189,63.2238576 188.776142,63 188.5,63 L185.5,63 Z M188.782486,56.0753788 C188.587223,55.8801167 188.270641,55.8801167 188.075379,56.0753788 C187.880117,56.2706409 187.880117,56.5872234 188.075379,56.7824856 L190.196699,58.9038059 C190.391961,59.0990681 190.708544,59.0990681 190.903806,58.9038059 C191.099068,58.7085438 191.099068,58.3919613 190.903806,58.1966991 L188.782486,56.0753788 Z M193.5,67 C193.667177,67 193.823292,66.9164494 193.916025,66.7773501 L195.498929,64.3997819 L197.083975,66.7773501 C197.176708,66.9164494 197.332823,67 197.5,67 L205.5,67 C205.776142,67 206,66.7761424 206,66.5 C206,66.2238576 205.776142,66 205.5,66 L197.770004,66 L195.916025,63.2226499 C195.718114,62.9257834 195.281886,62.9257834 195.083975,63.2226499 L193.229996,66 L185.5,66 C185.223858,66 185,66.2238576 185,66.5 C185,66.7761424 185.223858,67 185.5,67 L193.5,67 Z" sketch:type="MSShapeGroup"/></g></g></svg>