<svg xmlns="http://www.w3.org/2000/svg" xmlns:xlink="http://www.w3.org/1999/xlink" xmlns:sketch="http://www.bohemiancoding.com/sketch/ns" viewBox="0 0 30 37.5" version="1.1" x="0px" y="0px"><title>shopping_005-hanging_board-sign-shop-oen</title><desc>Created with Sketch.</desc><g stroke="none" stroke-width="1" fill="none" fill-rule="evenodd" sketch:type="MSPage"><g sketch:type="MSArtboardGroup" transform="translate(-225.000000, -45.000000)" fill="#000000"><g sketch:type="MSLayerGroup" transform="translate(227.000000, 47.000000)"><path d="M0,9.5 L0,25.5 C0,25.7761424 0.223857625,26 0.5,26 L26.5,26 C26.7761424,26 27,25.7761424 27,25.5 L27,9.5 C27,9.22385763 26.7761424,9 26.5,9 L0.5,9 C0.223857625,9 0,9.22385763 0,9.5 Z M1,10 L26,10 L26,25 L1,25 L1,10 Z" sketch:type="MSShapeGroup"/><path d="M13.5,1.42000008 L21.6403697,9.84737018 C21.8322169,10.0459885 22.1487518,10.0514776 22.3473702,9.85963031 C22.5459885,9.66778305 22.5514776,9.35124815 22.3596303,9.15262982 L13.8596303,0.352629818 C13.6630616,0.149123394 13.3369384,0.149123394 13.1403697,0.352629818 L4.64036969,9.15262982 C4.44852244,9.35124815 4.45401148,9.66778305 4.65262982,9.85963031 C4.85124815,10.0514776 5.16778305,10.0459885 5.35963031,9.84737018 L13.5,1.42000008 Z" sketch:type="MSShapeGroup"/><path d="M2,11.5 L2,23.5 C2,23.7761424 2.22385763,24 2.5,24 L24.5,24 C24.7761424,24 25,23.7761424 25,23.5 L25,11.5 C25,11.2238576 24.7761424,11 24.5,11 L2.5,11 C2.22385763,11 2,11.2238576 2,11.5 Z M3,12 L24,12 L24,23 L3,23 L3,12 Z" sketch:type="MSShapeGroup"/><path d="M6,15.5 L6,19.5 C6,19.7761424 6.22385763,20 6.5,20 L8.5,20 C8.77614237,20 9,19.7761424 9,19.5 L9,15.5 C9,15.2238576 8.77614237,15 8.5,15 L6.5,15 C6.22385763,15 6,15.2238576 6,15.5 Z M7,16 L8,16 L8,19 L7,19 L7,16 Z" sketch:type="MSShapeGroup"/><path d="M10,15.5 L10,19.5 C10,19.7761424 10.2238576,20 10.5,20 C10.7761424,20 11.0012817,19.7800007 11.0012817,19.5 L11.0012817,18 L12.5,18 C12.7761424,18 13,17.7761424 13,17.5 L13,15.5 C13,15.2238576 12.7761424,15 12.5,15 L10.5,15 C10.2238576,15 10,15.2238576 10,15.5 Z M11,16 L12,16 L12,17 L11,17 L11,16 Z" sketch:type="MSShapeGroup"/><path d="M15,19.0041513 L16.4989624,19.0000011 C16.7751042,18.999428 16.9994259,19.2228206 16.9999989,19.4989624 C17.000572,19.7751042 16.7771794,19.9994259 16.5010376,19.9999989 L14.5010376,20.0041493 C14.2244905,20.0047232 14,19.7806981 14,19.5041504 L14,15.5 C14,15.2238576 14.2238576,15 14.5,15 L16.5,15 C16.7761424,15 17,15.2238576 17,15.5 C17,15.7761424 16.7761424,16 16.5,16 L15,16 L15,17 L15.5,17 C15.7761424,17 16,17.2238576 16,17.5 C16,17.7761424 15.7761424,18 15.5,18 L15,18 L15,19.0041513 Z" sketch:type="MSShapeGroup"/><path d="M18,19.5 C18,19.7761424 18.2238576,20 18.5,20 C18.7761424,20 19,19.7761424 19,19.5 L19,17.1513878 L20,18.6513878 L20,19.5 C20,19.7761424 20.2238576,20 20.5,20 C20.7761424,20 21,19.7761424 21,19.5 L21,15.5 C21,15.2238576 20.7761424,15 20.5,15 C20.2238576,15 20,15.2238576 20,15.5 L20,16.8486122 L18.9203269,15.2291025 C18.8751119,15.1590911 18.8128815,15.1010994 18.7394853,15.0609771 C18.5757354,14.9751213 18.3802222,14.9789267 18.2226499,15.0839749 C18.1504578,15.1321029 18.0948192,15.1957558 18.05721,15.2675534 C18.0220997,15.3316335 18,15.4132359 18,15.5 C18.0013538,15.6006687 18,19.5 18,19.5 Z" sketch:type="MSShapeGroup"/></g></g></g></svg>