<svg xmlns="http://www.w3.org/2000/svg" xmlns:xlink="http://www.w3.org/1999/xlink" xmlns:sketch="http://www.bohemiancoding.com/sketch/ns" viewBox="0 0 30 37.5" version="1.1" x="0px" y="0px"><title>transport_031-hot_air_balloon-flight-travel-sky</title><desc>Created with Sketch.</desc><g stroke="none" stroke-width="1" fill="none" fill-rule="evenodd" sketch:type="MSPage"><g sketch:type="MSArtboardGroup" transform="translate(-45.000000, -180.000000)" fill="#000000"><path d="M62.1963135,198.730101 C66.1052861,197.749801 69,194.212949 69,190 C69,185.787051 66.1052861,182.250199 62.1963135,181.269899 C63.5709176,182.981327 64.5,186.249554 64.5,190 C64.5,193.750446 63.5709176,197.018673 62.1963135,198.730101 Z M57.8036865,181.269899 C53.8947139,182.250199 51,185.787051 51,190 C51,194.212949 53.8947139,197.749801 57.8036865,198.730101 C56.4290824,197.018673 55.5,193.750446 55.5,190 C55.5,186.249554 56.4290824,182.981327 57.8036865,181.269899 Z M54.2317698,198.169695 L56.9221031,204.807798 C56.9646098,204.912679 57.0173228,205.086614 57.0386917,205.193458 L57.9004602,209.502301 C57.9570312,209.785156 58.2195947,210 58.4904785,210 L61.5095215,210 C61.7849426,210 62.0445655,209.777173 62.0995398,209.502301 L62.9583518,205.208241 C62.9781679,205.109161 63.0318186,204.929219 63.0748796,204.822852 L65.7683329,198.169622 C68.3285264,196.358644 70,193.374519 70,190 C70,184.477153 65.5228475,180 60,180 C54.4771525,180 50,184.477153 50,190 C50,193.374564 51.6715183,196.358724 54.2317698,198.169695 Z M55.6509189,199.007293 L58.0815546,205 L61.9243263,205 L64.3506937,199.006513 C63.0353119,199.643093 61.559336,200 60,200 C58.4413011,200 56.9658943,199.643384 55.6509189,199.007293 Z M61.7799988,206 L61.1799927,209 L58.822998,209 L58.2214355,206 L61.7799988,206 Z M63.5,190 C63.5,184.967036 61.7148339,181 60,181 C58.2851661,181 56.5,184.967036 56.5,190 C56.5,195.032964 58.2851661,199 60,199 C61.7148339,199 63.5,195.032964 63.5,190 Z" sketch:type="MSShapeGroup"/></g></g></svg>