<svg xmlns="http://www.w3.org/2000/svg" xmlns:xlink="http://www.w3.org/1999/xlink" xmlns:sketch="http://www.bohemiancoding.com/sketch/ns" viewBox="0 0 30 37.5" version="1.1" x="0px" y="0px"><title>design_016-color-circle-circles-graphic</title><desc>Created with Sketch.</desc><g stroke="none" stroke-width="1" fill="none" fill-rule="evenodd" sketch:type="MSPage"><g sketch:type="MSArtboardGroup" transform="translate(-270.000000, -90.000000)" fill="#000000"><g sketch:type="MSLayerGroup" transform="translate(271.000000, 92.000000)"><path d="M19.5,17 C24.1944204,17 28,13.1944204 28,8.5 C28,3.80557963 24.1944204,0 19.5,0 C14.8055796,0 11,3.80557963 11,8.5 C11,13.1944204 14.8055796,17 19.5,17 Z M19.5,16 C23.6421356,16 27,12.6421356 27,8.5 C27,4.35786438 23.6421356,1 19.5,1 C15.3578644,1 12,4.35786438 12,8.5 C12,12.6421356 15.3578644,16 19.5,16 Z" sketch:type="MSShapeGroup"/><path d="M8.5,17 C13.1944204,17 17,13.1944204 17,8.5 C17,3.80557963 13.1944204,0 8.5,0 C3.80557963,0 0,3.80557963 0,8.5 C0,13.1944204 3.80557963,17 8.5,17 Z M8.5,16 C12.6421356,16 16,12.6421356 16,8.5 C16,4.35786438 12.6421356,1 8.5,1 C4.35786438,1 1,4.35786438 1,8.5 C1,12.6421356 4.35786438,16 8.5,16 Z" sketch:type="MSShapeGroup"/><path d="M14,27 C18.6944204,27 22.5,23.1944204 22.5,18.5 C22.5,13.8055796 18.6944204,10 14,10 C9.30557963,10 5.5,13.8055796 5.5,18.5 C5.5,23.1944204 9.30557963,27 14,27 Z M14,26 C18.1421356,26 21.5,22.6421356 21.5,18.5 C21.5,14.3578644 18.1421356,11 14,11 C9.85786438,11 6.5,14.3578644 6.5,18.5 C6.5,22.6421356 9.85786438,26 14,26 Z" sketch:type="MSShapeGroup"/></g></g></g></svg>