<svg xmlns="http://www.w3.org/2000/svg" xmlns:xlink="http://www.w3.org/1999/xlink" xmlns:sketch="http://www.bohemiancoding.com/sketch/ns" viewBox="0 0 30 37.5" version="1.1" x="0px" y="0px"><title>weather_056-day_fog-cloud-sun-forecast</title><desc>Created with Sketch.</desc><g stroke="none" stroke-width="1" fill="none" fill-rule="evenodd" sketch:type="MSPage"><g sketch:type="MSArtboardGroup" transform="translate(-450.000000, -225.000000)" fill="#000000"><g sketch:type="MSLayerGroup" transform="translate(453.000000, 228.000000)"><path d="M1,11.5 C1,7.91014913 3.91014913,5 7.5,5 C10.9319832,5 13.7671333,7.66855203 13.986394,11.0757476 C14.0102745,11.4468377 14.416466,11.6629371 14.7375564,11.4753762 C15.2679589,11.1655482 15.8712936,11 16.5,11 C18.4329966,11 20,12.5670034 20,14.5 C20,15.1228733 19.8375182,15.7208692 19.5331259,16.2478075 C19.3949987,16.4869215 19.4768648,16.7927359 19.7159788,16.930863 C19.9550928,17.0689901 20.2609071,16.9871241 20.3990343,16.7480101 C20.790693,16.0700036 21,15.2996728 21,14.5 C21,12.0147186 18.9852814,10 16.5,10 C15.692826,10 15.2099915,10.1800003 14.9076925,10.3000031 C14.3299866,6.70999908 11.2247443,4 7.5,4 C3.35786438,4 0,7.35786438 0,11.5 C0,13.544877 0.822961878,15.4602168 2.25592986,16.8618811 C2.45333631,17.0549751 2.7698995,17.0514792 2.96299353,16.8540728 C3.15608756,16.6566663 3.15259166,16.3401031 2.95518521,16.1470091 C1.71262832,14.9315963 1,13.273044 1,11.5 Z M4.5,19 C4.77614237,19 5,18.7761424 5,18.5 C5,18.2238576 4.77614237,18 4.5,18 C4.22385763,18 4,18.2238576 4,18.5 C4,18.7761424 4.22385763,19 4.5,19 Z M6.5,19 C6.77614237,19 7,18.7761424 7,18.5 C7,18.2238576 6.77614237,18 6.5,18 C6.22385763,18 6,18.2238576 6,18.5 C6,18.7761424 6.22385763,19 6.5,19 Z M8.5,19 C8.77614237,19 9,18.7761424 9,18.5 C9,18.2238576 8.77614237,18 8.5,18 C8.22385763,18 8,18.2238576 8,18.5 C8,18.7761424 8.22385763,19 8.5,19 Z M10.5,19 C10.7761424,19 11,18.7761424 11,18.5 C11,18.2238576 10.7761424,18 10.5,18 C10.2238576,18 10,18.2238576 10,18.5 C10,18.7761424 10.2238576,19 10.5,19 Z M3.5,21 C3.77614237,21 4,20.7761424 4,20.5 C4,20.2238576 3.77614237,20 3.5,20 C3.22385763,20 3,20.2238576 3,20.5 C3,20.7761424 3.22385763,21 3.5,21 Z M5.5,21 C5.77614237,21 6,20.7761424 6,20.5 C6,20.2238576 5.77614237,20 5.5,20 C5.22385763,20 5,20.2238576 5,20.5 C5,20.7761424 5.22385763,21 5.5,21 Z M7.5,21 C7.77614237,21 8,20.7761424 8,20.5 C8,20.2238576 7.77614237,20 7.5,20 C7.22385763,20 7,20.2238576 7,20.5 C7,20.7761424 7.22385763,21 7.5,21 Z M9.5,21 C9.77614237,21 10,20.7761424 10,20.5 C10,20.2238576 9.77614237,20 9.5,20 C9.22385763,20 9,20.2238576 9,20.5 C9,20.7761424 9.22385763,21 9.5,21 Z M4.5,23 C4.77614237,23 5,22.7761424 5,22.5 C5,22.2238576 4.77614237,22 4.5,22 C4.22385763,22 4,22.2238576 4,22.5 C4,22.7761424 4.22385763,23 4.5,23 Z M2.5,19 C2.77614237,19 3,18.7761424 3,18.5 C3,18.2238576 2.77614237,18 2.5,18 C2.22385763,18 2,18.2238576 2,18.5 C2,18.7761424 2.22385763,19 2.5,19 Z M1.5,21 C1.77614237,21 2,20.7761424 2,20.5 C2,20.2238576 1.77614237,20 1.5,20 C1.22385763,20 1,20.2238576 1,20.5 C1,20.7761424 1.22385763,21 1.5,21 Z M2.5,23 C2.77614237,23 3,22.7761424 3,22.5 C3,22.2238576 2.77614237,22 2.5,22 C2.22385763,22 2,22.2238576 2,22.5 C2,22.7761424 2.22385763,23 2.5,23 Z M6.5,23 C6.77614237,23 7,22.7761424 7,22.5 C7,22.2238576 6.77614237,22 6.5,22 C6.22385763,22 6,22.2238576 6,22.5 C6,22.7761424 6.22385763,23 6.5,23 Z M8.5,23 C8.77614237,23 9,22.7761424 9,22.5 C9,22.2238576 8.77614237,22 8.5,22 C8.22385763,22 8,22.2238576 8,22.5 C8,22.7761424 8.22385763,23 8.5,23 Z M10.5,23 C10.7761424,23 11,22.7761424 11,22.5 C11,22.2238576 10.7761424,22 10.5,22 C10.2238576,22 10,22.2238576 10,22.5 C10,22.7761424 10.2238576,23 10.5,23 Z M12.5,19 C12.7761424,19 13,18.7761424 13,18.5 C13,18.2238576 12.7761424,18 12.5,18 C12.2238576,18 12,18.2238576 12,18.5 C12,18.7761424 12.2238576,19 12.5,19 Z M14.5,19 C14.7761424,19 15,18.7761424 15,18.5 C15,18.2238576 14.7761424,18 14.5,18 C14.2238576,18 14,18.2238576 14,18.5 C14,18.7761424 14.2238576,19 14.5,19 Z M16.5,19 C16.7761424,19 17,18.7761424 17,18.5 C17,18.2238576 16.7761424,18 16.5,18 C16.2238576,18 16,18.2238576 16,18.5 C16,18.7761424 16.2238576,19 16.5,19 Z M18.5,19 C18.7761424,19 19,18.7761424 19,18.5 C19,18.2238576 18.7761424,18 18.5,18 C18.2238576,18 18,18.2238576 18,18.5 C18,18.7761424 18.2238576,19 18.5,19 Z M11.5,21 C11.7761424,21 12,20.7761424 12,20.5 C12,20.2238576 11.7761424,20 11.5,20 C11.2238576,20 11,20.2238576 11,20.5 C11,20.7761424 11.2238576,21 11.5,21 Z M13.5,21 C13.7761424,21 14,20.7761424 14,20.5 C14,20.2238576 13.7761424,20 13.5,20 C13.2238576,20 13,20.2238576 13,20.5 C13,20.7761424 13.2238576,21 13.5,21 Z M15.5,21 C15.7761424,21 16,20.7761424 16,20.5 C16,20.2238576 15.7761424,20 15.5,20 C15.2238576,20 15,20.2238576 15,20.5 C15,20.7761424 15.2238576,21 15.5,21 Z M17.5,21 C17.7761424,21 18,20.7761424 18,20.5 C18,20.2238576 17.7761424,20 17.5,20 C17.2238576,20 17,20.2238576 17,20.5 C17,20.7761424 17.2238576,21 17.5,21 Z M19.5,21 C19.7761424,21 20,20.7761424 20,20.5 C20,20.2238576 19.7761424,20 19.5,20 C19.2238576,20 19,20.2238576 19,20.5 C19,20.7761424 19.2238576,21 19.5,21 Z M12.5,23 C12.7761424,23 13,22.7761424 13,22.5 C13,22.2238576 12.7761424,22 12.5,22 C12.2238576,22 12,22.2238576 12,22.5 C12,22.7761424 12.2238576,23 12.5,23 Z M14.5,23 C14.7761424,23 15,22.7761424 15,22.5 C15,22.2238576 14.7761424,22 14.5,22 C14.2238576,22 14,22.2238576 14,22.5 C14,22.7761424 14.2238576,23 14.5,23 Z M16.5,23 C16.7761424,23 17,22.7761424 17,22.5 C17,22.2238576 16.7761424,22 16.5,22 C16.2238576,22 16,22.2238576 16,22.5 C16,22.7761424 16.2238576,23 16.5,23 Z M18.5,23 C18.7761424,23 19,22.7761424 19,22.5 C19,22.2238576 18.7761424,22 18.5,22 C18.2238576,22 18,22.2238576 18,22.5 C18,22.7761424 18.2238576,23 18.5,23 Z M20.5,19 C20.7761424,19 21,18.7761424 21,18.5 C21,18.2238576 20.7761424,18 20.5,18 C20.2238576,18 20,18.2238576 20,18.5 C20,18.7761424 20.2238576,19 20.5,19 Z M21.5,21 C21.7761424,21 22,20.7761424 22,20.5 C22,20.2238576 21.7761424,20 21.5,20 C21.2238576,20 21,20.2238576 21,20.5 C21,20.7761424 21.2238576,21 21.5,21 Z M20.5,23 C20.7761424,23 21,22.7761424 21,22.5 C21,22.2238576 20.7761424,22 20.5,22 C20.2238576,22 20,22.2238576 20,22.5 C20,22.7761424 20.2238576,23 20.5,23 Z" sketch:type="MSShapeGroup"/><path d="M20,9.5 C20,7.01471863 17.9852814,5 15.5,5 C14.0502754,5 12.7606678,5.68554235 11.9376705,6.75013377 C12.1861314,6.9820864 12.4164651,7.23334319 12.626242,7.50158166 C13.258596,6.59394791 14.309936,6 15.5,6 C17.4329966,6 19,7.56700338 19,9.5 C19,10.2565678 18.759949,10.9570687 18.3518578,11.529492 C18.6373253,11.7078331 18.8952304,11.9261809 19.1177242,12.1766861 C19.6721147,11.4286258 20,10.5026037 20,9.5 Z M17.9587809,0.32370465 C17.6920479,0.252233744 17.4178794,0.410524989 17.3464085,0.677258041 L16.5699514,3.57503552 C16.4984805,3.84176857 16.6567717,4.11593705 16.9235047,4.18740796 C17.1902378,4.25887886 17.4644063,4.10058762 17.5358772,3.83385456 L18.3123343,0.936077086 C18.3838052,0.669344034 18.225514,0.395175556 17.9587809,0.32370465 Z M23.7272413,4.75 C23.5891701,4.51085369 23.2833749,4.42891611 23.0442286,4.5669873 L20.4461524,6.0669873 C20.2070061,6.20505849 20.1250685,6.51085369 20.2631397,6.75 C20.4012109,6.98914631 20.7070061,7.07108389 20.9461524,6.9330127 L23.5442286,5.4330127 C23.7833749,5.29494151 23.8653125,4.98914631 23.7272413,4.75 Z M24.6762953,11.9587809 C24.7477663,11.6920479 24.589475,11.4178794 24.322742,11.3464085 L21.4249645,10.5699514 C21.1582314,10.4984805 20.884063,10.6567717 20.812592,10.9235047 C20.7411211,11.1902378 20.8994124,11.4644063 21.1661454,11.5358772 L24.0639229,12.3123343 C24.330656,12.3838052 24.6048244,12.225514 24.6762953,11.9587809 Z M10.75,1.27275866 C10.5108537,1.41082985 10.4289161,1.71662505 10.5669873,1.95577137 L12.0669873,4.55384758 C12.2050585,4.79299389 12.5108537,4.87493147 12.75,4.73686028 C12.9891463,4.59878909 13.0710839,4.29299389 12.9330127,4.05384758 L11.4330127,1.45577137 C11.2949415,1.21662505 10.9891463,1.13468748 10.75,1.27275866 Z" sketch:type="MSShapeGroup"/></g></g></g></svg>