<svg xmlns="http://www.w3.org/2000/svg" xmlns:xlink="http://www.w3.org/1999/xlink" xmlns:sketch="http://www.bohemiancoding.com/sketch/ns" viewBox="0 0 30 37.5" version="1.1" x="0px" y="0px"><title>transport_016-train-subway-railway-railroad</title><desc>Created with Sketch.</desc><g stroke="none" stroke-width="1" fill="none" fill-rule="evenodd" sketch:type="MSPage"><g sketch:type="MSArtboardGroup" transform="translate(-270.000000, -90.000000)" fill="#000000"><path d="M291.697595,112 L277.302405,112 L277.126078,113 L291.873922,113 L291.697595,112 Z M292.713021,112 L294.996405,112 C296.110237,112 297,111.107004 297,110.005439 L297,92.9945615 C297,91.9023438 296.10296,91 294.996405,91 L274.003595,91 C272.889763,91 272,91.8929956 272,92.9945615 L272,110.005439 C272,111.097656 272.89704,112 274.003595,112 L276.286979,112 L275.010998,119.236444 C274.961873,119.515049 275.144275,119.769741 275.416222,119.817693 C275.680216,119.864242 275.947421,119.684497 275.995278,119.413088 L276.244443,118 L292.755557,118 L293.004722,119.413088 C293.052579,119.684497 293.319784,119.864242 293.583778,119.817693 C293.855725,119.769741 294.038127,119.515049 293.989002,119.236444 L292.713021,112 Z M292.57923,117 L276.42077,117 L276.949751,114 L292.050249,114 L292.57923,117 Z M296,96 L285,96 L285,103 L296,103 L296,96 Z M296,110.005229 C296,110.554626 295.561082,111 294.996929,111 L274.003071,111 C273.44909,111 273,110.549075 273,110.005229 L273,104 L296,104 L296,110.005229 Z M273,96 L284,96 L284,103 L273,103 L273,96 Z M296,92.9947712 C296,92.4509254 295.55091,92 294.996929,92 L274.003071,92 C273.438918,92 273,92.4453742 273,92.9947712 L273,95 L296,95 L296,92.9947712 Z M276,109.5 C277.104569,109.5 278,108.604569 278,107.5 C278,106.395431 277.104569,105.5 276,105.5 C274.895431,105.5 274,106.395431 274,107.5 C274,108.604569 274.895431,109.5 276,109.5 Z M276,108.5 C276.552285,108.5 277,108.052285 277,107.5 C277,106.947715 276.552285,106.5 276,106.5 C275.447715,106.5 275,106.947715 275,107.5 C275,108.052285 275.447715,108.5 276,108.5 Z M293,109.5 C294.104569,109.5 295,108.604569 295,107.5 C295,106.395431 294.104569,105.5 293,105.5 C291.895431,105.5 291,106.395431 291,107.5 C291,108.604569 291.895431,109.5 293,109.5 Z M293,108.5 C293.552285,108.5 294,108.052285 294,107.5 C294,106.947715 293.552285,106.5 293,106.5 C292.447715,106.5 292,106.947715 292,107.5 C292,108.052285 292.447715,108.5 293,108.5 Z" sketch:type="MSShapeGroup"/></g></g></svg>