<svg xmlns="http://www.w3.org/2000/svg" xmlns:xlink="http://www.w3.org/1999/xlink" xmlns:sketch="http://www.bohemiancoding.com/sketch/ns" viewBox="0 0 30 37.5" version="1.1" x="0px" y="0px"><title>transport_008-car-taxi-cab-vehicle-traffic</title><desc>Created with Sketch.</desc><g stroke="none" stroke-width="1" fill="none" fill-rule="evenodd" sketch:type="MSPage"><g sketch:type="MSArtboardGroup" transform="translate(-360.000000, -45.000000)" fill="#000000"><g sketch:type="MSLayerGroup" transform="translate(363.000000, 52.000000)"><path d="M2,15 C2,16.3807119 3.11928813,17.5 4.5,17.5 C5.88071187,17.5 7,16.3807119 7,15 L7,14.5 L6,14.5 L6,15 C6,15.8284271 5.32842712,16.5 4.5,16.5 C3.67157288,16.5 3,15.8284271 3,15 L3,14.5 L2,14.5 L2,15 Z" sketch:type="MSShapeGroup"/><path d="M17,15 C17,16.3807119 18.1192881,17.5 19.5,17.5 C20.8807119,17.5 22,16.3807119 22,15 L22,14.5 L21,14.5 L21,15 C21,15.8284271 20.3284271,16.5 19.5,16.5 C18.6715729,16.5 18,15.8284271 18,15 L18,14.5 L17,14.5 L17,15 Z" sketch:type="MSShapeGroup"/><path d="M0.420888972,10.2786376 C0.174840573,10.5842364 0,11.088196 0,11.4823264 L0,14.5 C0,14.7761424 0.223857625,15 0.5,15 L23.5,15 C23.7761424,15 24,14.7761424 24,14.5 L24,11.4823264 C24,11.0937341 23.8214856,10.5796734 23.579111,10.2786376 L21.2097811,7.33586525 C21.1745627,7.2921231 21.1031751,7.17355366 21.0768099,7.11304374 L18.3084924,0.759566383 C18.1173673,0.320921217 17.6262091,0 17.1499738,0 L6.85243709,0 C6.37112328,0 5.88473005,0.321623901 5.69381812,0.759433726 L2.92331243,7.11291108 C2.89433303,7.17936827 2.82961926,7.28692895 2.79021892,7.33586525 L0.420888972,10.2786376 Z M3.83995337,7.51262273 L6.61045905,1.15914538 C6.64308324,1.08432978 6.77061553,1 6.85243709,1 L17.1499738,1 C17.2288311,1 17.3597128,1.08551772 17.3917358,1.15901272 L20.1600533,7.51249008 C20.2216933,7.65395801 20.3392365,7.84918833 20.4308673,7.96299625 L22.8001972,10.9057686 C22.898443,11.0277926 23,11.320242 23,11.4823264 L23,14 L1,14 L1,11.4823264 C1,11.314603 1.09794996,11.0322726 1.19980277,10.9057686 L3.56913272,7.96299625 C3.6649849,7.84394524 3.77577342,7.65980375 3.83995337,7.51262273 Z" sketch:type="MSShapeGroup"/><path d="M3.25,11 L1,11 L1,10 L23,10 L23,11 L20.75,11 L17.9,14.8 L17.1,14.2 L19.5,11 L4.5,11 L6.9,14.2 L6.1,14.8 L3.25,11 Z" sketch:type="MSShapeGroup"/><path d="M14.5089948,12 L9.49100518,12 C9.21983051,12 9,12.2319336 9,12.5 C9,12.7761424 9.22788048,13 9.49100518,13 L14.5089948,13 C14.7801695,13 15,12.7680664 15,12.5 C15,12.2238576 14.7721195,12 14.5089948,12 Z" sketch:type="MSShapeGroup"/><path d="M1,7 L1,6 L4,6 L4,5 L1.0093689,5 C0.443353176,5 0,5.44724809 0,5.99895656 L0,7.00104344 C0,7.55733967 0.443586406,8 0.990777969,8 L23.009222,8 C23.5564136,8 24,7.55733967 24,7.00104344 L24,5.99895656 C24,5.44724809 23.5566468,5 22.9906311,5 L20,5 L20,6 L23,6 L23,7 L1,7 Z" sketch:type="MSShapeGroup"/></g></g></g></svg>