<svg xmlns="http://www.w3.org/2000/svg" xmlns:xlink="http://www.w3.org/1999/xlink" xmlns:sketch="http://www.bohemiancoding.com/sketch/ns" viewBox="0 0 30 37.5" version="1.1" x="0px" y="0px"><title>nature_016-flower-plant-bloom-blossom</title><desc>Created with Sketch.</desc><g stroke="none" stroke-width="1" fill="none" fill-rule="evenodd" sketch:type="MSPage"><g sketch:type="MSArtboardGroup" transform="translate(-270.000000, -90.000000)" fill="#000000"><path d="M280.025666,97.9652256 C280.294546,95.1786041 282.642853,93 285.5,93 C288.357147,93 290.705454,95.1786041 290.974334,97.9652256 C293.707657,97.3598322 296.505299,98.9199791 297.388206,101.637288 C298.271113,104.354596 296.924805,107.261194 294.357659,108.378028 C295.778065,110.790496 295.158796,113.933323 292.847316,115.612712 C290.535835,117.292101 287.355463,116.909874 285.5,114.813493 C283.644537,116.909874 280.464165,117.292101 278.152684,115.612712 C275.841204,113.933323 275.221935,110.790496 276.642341,108.378028 C274.075195,107.261194 272.728887,104.354596 273.611794,101.637288 C274.494701,98.9199791 277.292343,97.3598322 280.025666,97.9652256 L280.025666,97.9652256 Z M281.001261,98.6083009 C281.000211,98.5545567 281.000211,98.5545567 281,98.500591 C281,96.01497 283.014732,94 285.5,94 C287.985268,94 290,96.01497 290,98.500591 C289.999789,98.5545567 289.999789,98.5545567 289.998739,98.6083009 C289.99055,98.9577854 290.33436,99.207578 290.664208,99.0917925 C290.714998,99.0741863 290.714998,99.0741863 290.766257,99.0573094 C293.130223,98.2892102 295.66916,99.5826741 296.43715,101.946305 C297.20514,104.309935 295.911376,106.848719 293.54741,107.616818 C293.49602,107.633294 293.49602,107.633294 293.444582,107.648903 C293.109672,107.749111 292.978348,108.153284 293.190396,108.431209 C293.222835,108.474072 293.222835,108.474072 293.254726,108.517607 C294.715737,110.528517 294.270155,113.342891 292.25953,114.803695 C290.248906,116.264499 287.434584,115.818584 285.973573,113.807674 C285.942023,113.763891 285.942023,113.763891 285.911283,113.719794 C285.712486,113.432242 285.287514,113.432242 285.088717,113.719794 C285.057977,113.763891 285.057977,113.763891 285.026427,113.807674 C283.565416,115.818584 280.751094,116.264499 278.74047,114.803695 C276.729845,113.342891 276.284263,110.528517 277.745274,108.517607 C277.777165,108.474072 277.777165,108.474072 277.809604,108.431209 C278.021652,108.153284 277.890328,107.749111 277.555418,107.648903 C277.50398,107.633294 277.50398,107.633294 277.45259,107.616818 C275.088624,106.848719 273.79486,104.309935 274.56285,101.946305 C275.33084,99.5826741 277.869777,98.2892102 280.233743,99.0573094 C280.285002,99.0741863 280.285002,99.0741863 280.335792,99.0917925 C280.66564,99.207578 281.00945,98.9577854 281.001261,98.6083009 Z M285.5,109 C287.432997,109 289,107.432997 289,105.5 C289,103.567003 287.432997,102 285.5,102 C283.567003,102 282,103.567003 282,105.5 C282,107.432997 283.567003,109 285.5,109 Z M285.5,108 C286.880712,108 288,106.880712 288,105.5 C288,104.119288 286.880712,103 285.5,103 C284.119288,103 283,104.119288 283,105.5 C283,106.880712 284.119288,108 285.5,108 Z" sketch:type="MSShapeGroup"/></g></g></svg>