<svg xmlns="http://www.w3.org/2000/svg" xmlns:xlink="http://www.w3.org/1999/xlink" xmlns:sketch="http://www.bohemiancoding.com/sketch/ns" viewBox="0 0 30 37.5" version="1.1" x="0px" y="0px"><title>transport_036-take_off-airplane-aircraft-flight-departure</title><desc>Created with Sketch.</desc><g stroke="none" stroke-width="1" fill="none" fill-rule="evenodd" sketch:type="MSPage"><g sketch:type="MSArtboardGroup" transform="translate(-270.000000, -180.000000)" fill="#000000"><path d="M298.493548,204.997527 L271.513337,204.997527 C271.23173,204.997527 271.003442,205.229461 271.003442,205.497527 C271.003442,205.77367 271.228827,205.997527 271.513337,205.997527 L298.493548,205.997527 C298.775155,205.997527 299.003442,205.765594 299.003442,205.497527 C299.003442,205.221385 298.778058,204.997527 298.493548,204.997527 Z M274.525473,203.504268 C274.01612,203.724669 273.33924,203.552465 272.997114,203.0977 L270.298153,199.510152 C270.096375,199.241942 270.128583,198.839147 270.375552,198.605314 L271.786356,197.269553 C272.03088,197.038035 272.435268,197.013958 272.698818,197.223108 L274.699941,198.811166 C274.786363,198.87975 274.930865,198.892645 275.034151,198.833395 L282.471262,194.567107 L276.063898,186.664897 C275.716813,186.236837 275.844895,185.705873 276.344913,185.472711 L277.253112,185.049211 C277.757288,184.81411 278.526039,184.881962 278.979454,185.196431 L287.9549,191.421426 L292.13454,189.023781 C293.946183,187.984535 296.740585,188.211875 298.368596,189.525577 L298.987553,190.025036 C300.277043,191.065573 300.095557,192.439949 298.563221,193.102999 L274.525473,203.504268 Z M286.978723,191.981408 L278.219183,185.892748 C278.121766,185.825034 277.973187,185.816812 277.872228,185.86389 L277.005564,186.268022 L283.353282,194.061137 L286.978723,191.981408 Z M274.078315,199.594481 L272.283362,198.175039 L271.265725,199.132892 L273.796226,202.496517 C273.857545,202.578025 274.038305,202.625466 274.128351,202.586503 L298.166099,192.185234 C299.005257,191.822125 299.066294,191.373545 298.359572,190.803265 L297.740615,190.303806 C296.431905,189.247759 294.084286,189.058166 292.63213,189.891194 L275.531741,199.700807 C275.075715,199.962406 274.487562,199.919253 274.078315,199.594481 Z" sketch:type="MSShapeGroup"/></g></g></svg>