<svg xmlns="http://www.w3.org/2000/svg" xmlns:xlink="http://www.w3.org/1999/xlink" xmlns:sketch="http://www.bohemiancoding.com/sketch/ns" viewBox="0 0 30 37.5" version="1.1" x="0px" y="0px"><title>weather_041-lightning-cloud-storm-forecast</title><desc>Created with Sketch.</desc><g stroke="none" stroke-width="1" fill="none" fill-rule="evenodd" sketch:type="MSPage"><g sketch:type="MSArtboardGroup" transform="translate(-315.000000, -180.000000)" fill="#000000"><path d="M321,192.5 C321,188.910149 323.910149,186 327.5,186 C330.931983,186 333.767133,188.668552 333.986394,192.075748 C334.010274,192.446838 334.416466,192.662937 334.737556,192.475376 C335.267959,192.165548 335.871294,192 336.5,192 C338.432997,192 340,193.567003 340,195.5 C340,197.432997 338.432997,199 336.5,199 L335.5,199 C335.223858,199 335,199.223858 335,199.5 C335,199.776142 335.223858,200 335.5,200 L336.5,200 C338.985281,200 341,197.985281 341,195.5 C341,193.014719 338.985281,191 336.5,191 C335.692826,191 335.209991,191.179993 334.910004,191.300003 C334.329987,187.710007 331.192989,185 327.5,185 C323.357864,185 320,188.357864 320,192.5 C320,196.242557 322.757588,199.397851 326.427144,199.923779 C326.700494,199.962956 326.953846,199.773122 326.993023,199.499772 C327.0322,199.226423 326.842366,198.973071 326.569017,198.933894 C323.390219,198.478303 321,195.74336 321,192.5 Z M329.1,199.2 C328.852786,199.529618 329.087977,200 329.5,200 L331.5,200 L329.1,203.2 C328.934315,203.420914 328.979086,203.734315 329.2,203.9 C329.420914,204.065685 329.734315,204.020914 329.9,203.8 L332.9,199.8 C333.147214,199.470382 332.912023,199 332.5,199 L330.5,199 L332.9,195.8 C333.065685,195.579086 333.020914,195.265685 332.8,195.1 C332.579086,194.934315 332.265685,194.979086 332.1,195.2 L329.1,199.2 Z" sketch:type="MSShapeGroup"/></g></g></svg>