<svg xmlns="http://www.w3.org/2000/svg" xmlns:xlink="http://www.w3.org/1999/xlink" xmlns:sketch="http://www.bohemiancoding.com/sketch/ns" viewBox="0 0 30 37.5" version="1.1" x="0px" y="0px"><title>map_001-location-pin-marker-place</title><desc>Created with Sketch.</desc><g stroke="none" stroke-width="1" fill="none" fill-rule="evenodd" sketch:type="MSPage"><g sketch:type="MSArtboardGroup" transform="translate(-45.000000, -45.000000)" fill="#000000"><path d="M62.158301,70.066171 C63.100875,68.732652 64.043481,67.329678 64.923914,65.92199 C65.490728,65.015735 66.013548,64.135938 66.483281,63.291917 C68.092557,60.400353 69,58.08905 69,56.5 C69,51.80558 65.19442,48 60.5,48 C55.80558,48 52,51.80558 52,56.5 C52,58.08905 52.907443,60.400353 54.516719,63.291917 C54.986452,64.135938 55.509272,65.015735 56.076086,65.92199 C56.956519,67.329678 57.899125,68.732652 58.841699,70.066171 C59.171611,70.532919 59.478043,70.957769 59.7532,71.332577 C59.918693,71.558005 60.037279,71.717043 60.101156,71.801535 C60.301214,72.066155 60.698786,72.066155 60.898844,71.801535 C60.962721,71.717043 61.081307,71.558005 61.2468,71.332577 C61.521957,70.957769 61.828389,70.532919 62.158301,70.066171 Z M59.658301,69.48897 C58.725875,68.169808 57.793481,66.782032 56.923914,65.391719 C56.365694,64.499204 55.851467,63.633867 55.39051,62.805615 C53.861275,60.057869 53,57.864159 53,56.5 C53,52.357864 56.357864,49 60.5,49 C64.642136,49 68,52.357864 68,56.5 C68,57.864159 67.138725,60.057869 65.60949,62.805615 C65.148533,63.633867 64.634306,64.499204 64.076086,65.391719 C63.206519,66.782032 62.274125,68.169808 61.341699,69.48897 C61.015361,69.95066 60.5,70.649353 60.5,70.649353 C60.5,70.649353 59.984639,69.95066 59.658301,69.48897 L59.658301,69.48897 Z M60.5,59 C62.432997,59 64,57.432997 64,55.5 C64,53.567003 62.432997,52 60.5,52 C58.567003,52 57,53.567003 57,55.5 C57,57.432997 58.567003,59 60.5,59 L60.5,59 Z M60.5,58 C61.880712,58 63,56.880712 63,55.5 C63,54.119288 61.880712,53 60.5,53 C59.119288,53 58,54.119288 58,55.5 C58,56.880712 59.119288,58 60.5,58 L60.5,58 Z" sketch:type="MSShapeGroup"/></g></g></svg>