<svg xmlns="http://www.w3.org/2000/svg" xmlns:xlink="http://www.w3.org/1999/xlink" xmlns:sketch="http://www.bohemiancoding.com/sketch/ns" viewBox="0 0 30 37.5" version="1.1" x="0px" y="0px"><title>map_004-pin-marker-location-place-fixed</title><desc>Created with Sketch.</desc><g stroke="none" stroke-width="1" fill="none" fill-rule="evenodd" sketch:type="MSPage"><g sketch:type="MSArtboardGroup" transform="translate(-180.000000, -45.000000)" fill="#000000"><path d="M189.500347,61 C189.229001,61 189,60.7761617 189,60.5000431 L189,57.7928501 C189,57.5136878 189.159351,57.1335423 189.35592,56.936973 L192,54.2928932 L192,50 L191.495316,50 C190.677109,50 190,49.3284271 190,48.5 C190,47.6657972 190.670275,47 191.497101,47 L198.502899,47 C199.328344,47 200,47.6715729 200,48.5 C200,49.3342028 199.330524,50 198.504684,50 L198,50 L198,54.2928932 L200.64408,56.936973 C200.838707,57.1316002 201,57.5167316 201,57.7928501 L201,60.5000431 C201,60.7792054 200.775987,61 200.499653,61 L195.964286,61 L195.517795,73.5017326 C195.507967,73.7769181 195.268066,74 195,74 C194.723858,74 194.492146,73.7800934 194.482205,73.5017326 L194.035714,61 L189.500347,61 Z M197.504684,49 L198.495316,49 C198.774045,49 199,48.7680664 199,48.5 C199,48.2238576 198.769203,48 198.499564,48 L191.500436,48 C191.224053,48 191,48.2319336 191,48.5 C191,48.7761424 191.214035,49 191.504684,49 L192.495316,49 C192.774045,49 193,49.2167564 193,49.5064677 L193,54.2006391 C193,54.4803535 192.838707,54.8683998 192.64408,55.063027 L190.144696,57.5624105 C190.064783,57.6423241 190,57.8056295 190,57.9025976 L190,60 L200,60 L200,57.9025976 C200,57.794631 199.937341,57.6444475 199.855304,57.5624105 L197.35592,55.063027 C197.159351,54.8664577 197,54.4903504 197,54.2006391 L197,49.5064677 C197,49.2267533 197.214035,49 197.504684,49 Z" sketch:type="MSShapeGroup"/></g></g></svg>