<svg xmlns="http://www.w3.org/2000/svg" xmlns:xlink="http://www.w3.org/1999/xlink" xmlns:sketch="http://www.bohemiancoding.com/sketch/ns" viewBox="0 0 30 37.5" version="1.1" x="0px" y="0px"><title>design_025-image-photo-picture-graphic-landscape</title><desc>Created with Sketch.</desc><g stroke="none" stroke-width="1" fill="none" fill-rule="evenodd" sketch:type="MSPage"><g sketch:type="MSArtboardGroup" transform="translate(-225.000000, -135.000000)" fill="#000000"><path d="M227.496168,141 L252.503832,141 C252.777858,141 253,141.227587 253,141.50021 L253,158.49979 C253,158.776048 252.775229,159 252.503832,159 L227.496168,159 C227.222142,159 227,158.772413 227,158.49979 L227,141.50021 C227,141.223952 227.224771,141 227.496168,141 Z M252,142 L252,158 L228,158 L228,142 L252,142 Z M229.500836,143 L250.499164,143 C250.775768,143 251,143.219907 251,143.498267 L251,156.501733 C251,156.776918 250.782258,157 250.499164,157 L229.500836,157 C229.224232,157 229,156.780093 229,156.501733 L229,143.498267 C229,143.223082 229.217742,143 229.500836,143 Z M250,156 L250,144 L230,144 L230,156 L230.785714,156 L235.188538,150.396407 C235.360554,150.177477 235.635956,150.173035 235.811462,150.396407 L238.088235,153.294118 L242.177734,148.386719 C242.355717,148.17314 242.643125,148.17175 242.822266,148.386719 L249.166667,156 L250,156 Z M235.5,151.599998 L232.050003,156 L235.833333,156 L237.439109,154.073069 L235.5,151.599998 Z M237.169998,156 L247.880005,156 L242.498998,149.563252 L237.169998,156 Z M233.5,149 C234.328427,149 235,148.328427 235,147.5 C235,146.671573 234.328427,146 233.5,146 C232.671573,146 232,146.671573 232,147.5 C232,148.328427 232.671573,149 233.5,149 Z M233.500003,148.200003 C233.886602,148.200003 234.200003,147.886602 234.200003,147.500003 C234.200003,147.113404 233.886602,146.800003 233.500003,146.800003 C233.113404,146.800003 232.800003,147.113404 232.800003,147.500003 C232.800003,147.886602 233.113404,148.200003 233.500003,148.200003 Z" sketch:type="MSShapeGroup"/></g></g></svg>