<svg xmlns="http://www.w3.org/2000/svg" xmlns:xlink="http://www.w3.org/1999/xlink" xmlns:sketch="http://www.bohemiancoding.com/sketch/ns" viewBox="0 0 30 37.5" version="1.1" x="0px" y="0px"><title>travel_016-tent-camping-shelter-outdoor</title><desc>Created with Sketch.</desc><g stroke="none" stroke-width="1" fill="none" fill-rule="evenodd" sketch:type="MSPage"><g sketch:type="MSArtboardGroup" transform="translate(-270.000000, -90.000000)" fill="#000000"><path d="M290.835085,118 L296.129201,118 L285,97.225492 L273.870799,118 L279.164915,118 L284.434634,108.163191 C284.742367,107.588757 285.253123,107.580338 285.565366,108.163191 L290.835085,118 L290.835085,118 Z M289.700629,118 L280.299371,118 L285,109.225492 L289.700629,118 L289.700629,118 Z M273.195978,119 C272.646262,119 272.412941,118.603685 272.672649,118.118897 L284.432772,96.1666667 L282.063979,91.744919 C281.930972,91.4966404 282.027594,91.1858467 282.263889,91.05926 C282.507303,90.9288597 282.809221,91.0183875 282.941629,91.2655485 L285,95.1078413 L287.058371,91.2655485 C287.189262,91.0212182 287.499816,90.9326733 287.736111,91.05926 C287.979525,91.1896604 288.071318,91.4923646 287.936021,91.744919 L285.567228,96.1666667 L297.327351,118.118897 C297.58804,118.605517 297.351004,119 296.804022,119 L273.195978,119 L273.195978,119 Z" sketch:type="MSShapeGroup"/></g></g></svg>