<svg xmlns="http://www.w3.org/2000/svg" xmlns:xlink="http://www.w3.org/1999/xlink" xmlns:sketch="http://www.bohemiancoding.com/sketch/ns" viewBox="0 0 30 37.5" version="1.1" x="0px" y="0px"><title>nature_001-tree-plant-garden-farm</title><desc>Created with Sketch.</desc><g stroke="none" stroke-width="1" fill="none" fill-rule="evenodd" sketch:type="MSPage"><g sketch:type="MSArtboardGroup" transform="translate(-45.000000, -45.000000)" fill="#000000"><path d="M61,62.9855382 C65.4616897,62.7267293 69,59.026573 69,54.5 C69,49.8055796 65.1944204,46 60.5,46 C55.8055796,46 52,49.8055796 52,54.5 C52,59.026573 55.5383103,62.7267293 60,62.9855382 L60,74 L58.4976988,74 C58.2148438,74 58,74.2238576 58,74.5 C58,74.7680664 58.2228273,75 58.4976988,75 L62.5023012,75 C62.7851562,75 63,74.7761424 63,74.5 C63,74.2319336 62.7771727,74 62.5023012,74 L61,74 L61,62.9855382 Z M61,61.9835977 C64.9090159,61.7263047 68,58.4741213 68,54.5 C68,50.3578644 64.6421356,47 60.5,47 C56.3578644,47 53,50.3578644 53,54.5 C53,58.4741213 56.0909841,61.7263047 60,61.9835977 L60,59.7071068 L56.1466913,55.8537981 C55.951294,55.6584008 55.956895,55.3359982 56.1464466,55.1464466 C56.3417088,54.9511845 56.6519203,54.9448135 56.8549733,55.1478665 L60,58.2928932 L60,54.7071068 L58.1468002,52.8539069 C57.9513428,52.6584495 57.956895,52.3359982 58.1464466,52.1464466 C58.3417088,51.9511845 58.6569366,51.9498299 58.8483734,52.1412666 L60,53.2928932 L60,50.4993845 C60,50.223582 60.2319336,50 60.5,50 C60.7761424,50 61,50.2161264 61,50.4993845 L61,53.2928932 L62.1516266,52.1412666 C62.3440279,51.9488653 62.6640018,51.956895 62.8535534,52.1464466 C63.0488155,52.3417088 63.045872,52.6612348 62.8531998,52.8539069 L61,54.7071068 L61,58.2928932 L64.1450267,55.1478665 C64.341073,54.9518202 64.6640018,54.956895 64.8535534,55.1464466 C65.0488155,55.3417088 65.0504929,55.6566139 64.8533087,55.8537981 L61,59.7071068 L61,61.9835977 Z" sketch:type="MSShapeGroup"/></g></g></svg>