<svg xmlns="http://www.w3.org/2000/svg" xmlns:xlink="http://www.w3.org/1999/xlink" xmlns:sketch="http://www.bohemiancoding.com/sketch/ns" viewBox="0 0 30 37.5" version="1.1" x="0px" y="0px"><title>weather_023-hurricane-typhoon-storm-forecast</title><desc>Created with Sketch.</desc><g stroke="none" stroke-width="1" fill="none" fill-rule="evenodd" sketch:type="MSPage"><g sketch:type="MSArtboardGroup" transform="translate(-495.000000, -90.000000)" fill="#000000"><g sketch:type="MSLayerGroup" transform="translate(496.000000, 90.000000)"><path d="M23.5,4 C23.5,1.89980195 18.6006932,0.5 12.5,0.5 C6.39930683,0.5 1.5,1.89980195 1.5,4 C1.5,6.10019805 6.39930683,7.5 12.5,7.5 C18.6006932,7.5 23.5,6.10019805 23.5,4 Z M2.5,4 C2.5,2.78648955 7.00271342,1.5 12.5,1.5 C17.9972866,1.5 22.5,2.78648955 22.5,4 C22.5,5.21351045 17.9972866,6.5 12.5,6.5 C7.00271342,6.5 2.5,5.21351045 2.5,4 Z" sketch:type="MSShapeGroup"/><path d="M2.71035188,10.0553369 C2.95436287,13.5448567 8.5049244,15.4801606 15.5855935,14.985032 C22.6662625,14.4899034 27.8934641,11.8009449 27.6494531,8.31142504 C27.5196214,6.45474532 25.8983359,5.02048746 23.2326038,4.16766167 L22.9278957,5.12010744 C25.2468983,5.86200693 26.5567595,7.02076564 26.6518891,8.38118151 C26.8412357,11.0889641 22.1019693,13.5269207 15.515837,13.987468 C8.92970469,14.4480152 3.89726253,12.693363 3.70791593,9.98558041 C3.66043639,9.30659142 3.91198757,8.64342546 4.46071006,8.00525405 L3.70246324,7.35328644 C2.99083411,8.1809204 2.64333993,9.09702148 2.71035188,10.0553369 Z" sketch:type="MSShapeGroup"/><path d="M3.27897914,10.0616167 C1.8177315,10.4166631 0.839429519,11.1335219 0.512991246,12.2012534 C-0.333217192,14.9690765 3.8116479,18.181201 9.98830424,20.0695944 C16.1649606,21.9579877 21.3974067,21.6127949 22.2436152,18.8449718 C22.7371001,17.2308553 21.5622457,15.4782911 19.1852485,13.8831016 L18.6280055,14.7134511 C20.6796882,16.0903238 21.6139964,17.4840584 21.2873104,18.5526001 C20.6799121,20.5393104 15.9628443,20.8505028 10.2806759,19.1132896 C4.59850755,17.3760764 0.86189773,14.4803353 1.469296,12.4936251 C1.6761344,11.8170872 2.36403939,11.3130191 3.51508447,11.0333441 L3.27897914,10.0616167 L3.27897914,10.0616167 Z" sketch:type="MSShapeGroup"/><path d="M4.57280045,16.7673519 C2.84842601,17.0602735 1.72451513,17.7667955 1.5069551,18.8860448 C1.08937523,21.034307 4.39275839,23.0559492 9.07295147,23.9656866 C13.7531445,24.875424 17.5733086,24.2384591 17.9908885,22.0901969 C18.1089693,21.4827235 17.9270043,20.8734986 17.4922203,20.3018013 L16.6962554,20.9071442 C16.9698804,21.2669334 17.0682075,21.5961359 17.0092613,21.8993879 C16.7483515,23.2416524 13.4329131,23.7944606 9.26376046,22.9840594 C5.09460785,22.1736583 2.22767248,20.4191184 2.48858229,19.0768538 C2.60638316,18.4708209 3.38044399,17.9842245 4.7402726,17.7532287 L4.57280045,16.7673519 L4.57280045,16.7673519 Z" sketch:type="MSShapeGroup"/><path d="M4.75464748,8.69791464 C4.90662974,8.80799044 4.90662974,8.80799044 5.05718487,8.91711608 C7.19168083,10.4665243 7.83495875,11.333213 7.53497321,12.8635334 C7.37499018,13.6796571 7.25329525,14.0013507 6.27689238,16.3692691 C5.38317932,18.5366527 4.97094809,19.8684704 4.87705949,21.3264581 C4.6768446,24.4355772 6.29112354,26.950602 10.2760364,28.947035 C10.634228,29.1264882 11.0474554,28.8328621 10.9958316,28.4355718 C10.4400643,24.1584546 12.1155982,21.4118725 17.1430683,16.4227491 C17.3701975,16.1974839 17.915854,15.6559914 18.0507066,15.5214208 C22.6944168,10.887419 24.3158318,8.05101938 23.4903872,3.90242773 C23.4364996,3.63159433 23.1732611,3.45572508 22.9024277,3.50961275 C22.6315943,3.56350043 22.4557251,3.82673887 22.5096128,4.09757227 C23.2481606,7.80943082 21.7674225,10.3997393 17.3443402,14.8135744 C17.2103007,14.9473337 16.6662393,15.4872425 16.4386737,15.7129405 C11.2016299,20.910039 9.79199219,23.645019 9.932312,27.6311177 C6.88133899,25.8983971 5.71509782,23.8737111 5.87499249,21.390721 C5.9598087,20.0736176 6.3472748,18.8218099 7.20138099,16.7504787 C8.21474198,14.2929316 8.33732447,13.9688917 8.51629632,13.0559002 C8.91743465,11.0095676 8.07094034,9.86908525 5.64462417,8.10784785 C5.49286406,7.99784866 5.49286406,7.99784866 5.34164216,7.88832384 C3.23655082,6.3620251 2.5,5.48370822 2.5,4 C2.5,3.72385763 2.27614237,3.5 2,3.5 C1.72385763,3.5 1.5,3.72385763 1.5,4 C1.5,5.91592872 2.40325321,6.99303368 4.75464748,8.69791464 Z" sketch:type="MSShapeGroup"/></g></g></g></svg>