<svg xmlns="http://www.w3.org/2000/svg" xmlns:xlink="http://www.w3.org/1999/xlink" xmlns:sketch="http://www.bohemiancoding.com/sketch/ns" viewBox="0 0 30 37.5" version="1.1" x="0px" y="0px"><title>map_003-pin-marker-location-place</title><desc>Created with Sketch.</desc><g stroke="none" stroke-width="1" fill="none" fill-rule="evenodd" sketch:type="MSPage"><g sketch:type="MSArtboardGroup" transform="translate(-135.000000, -45.000000)" fill="#000000"><g sketch:type="MSLayerGroup" transform="translate(142.000000, 46.000000)"><path d="M8.01923803,26.6373606 C8.15738638,27.1208798 8.84261362,27.1208798 8.98076197,26.6373606 L11.980762,16.1373606 L11.019238,15.8626394 L8.49974045,24.6790641 L5.98076197,15.8626394 L5.01923803,16.1373606 L8.01923803,26.6373606 Z" sketch:type="MSShapeGroup"/><path d="M8.5,17 C13.1944204,17 17,13.1944204 17,8.5 C17,3.80557963 13.1944204,0 8.5,0 C3.80557963,0 0,3.80557963 0,8.5 C0,13.1944204 3.80557963,17 8.5,17 Z M8.5,16 C12.6421356,16 16,12.6421356 16,8.5 C16,4.35786438 12.6421356,1 8.5,1 C4.35786438,1 1,4.35786438 1,8.5 C1,12.6421356 4.35786438,16 8.5,16 Z M8.5,12 C10.4329966,12 12,10.4329966 12,8.5 C12,6.56700338 10.4329966,5 8.5,5 C6.56700338,5 5,6.56700338 5,8.5 C5,10.4329966 6.56700338,12 8.5,12 Z M8.5,11 C9.88071187,11 11,9.88071187 11,8.5 C11,7.11928813 9.88071187,6 8.5,6 C7.11928813,6 6,7.11928813 6,8.5 C6,9.88071187 7.11928813,11 8.5,11 Z" sketch:type="MSShapeGroup"/></g></g></g></svg>