<svg xmlns="http://www.w3.org/2000/svg" xmlns:xlink="http://www.w3.org/1999/xlink" xmlns:sketch="http://www.bohemiancoding.com/sketch/ns" viewBox="0 0 30 37.5" version="1.1" x="0px" y="0px"><title>nature_008-forest-trees-plants-garden</title><desc>Created with Sketch.</desc><g stroke="none" stroke-width="1" fill="none" fill-rule="evenodd" sketch:type="MSPage"><g sketch:type="MSArtboardGroup" transform="translate(-360.000000, -45.000000)" fill="#000000"><path d="M370,70 L366.994771,70 C366.450925,70 366.224513,69.6151199 366.501465,69.1403463 L367.75,67 L361.994771,67 C361.450925,67 361.224513,66.6151199 361.501465,66.1403463 L364.5,61 L363.002441,61 C362.44695,61 362.244223,60.6264827 362.545487,60.1657257 L365.923077,55 L365.006596,55 C364.446026,55 364.243112,54.6259812 364.543006,54.1646056 L369.956994,45.8353944 C370.253129,45.3798008 370.743112,45.3740188 371.043006,45.8353944 L373.975,50.3461538 L374.956994,48.8353944 C375.253129,48.3798008 375.743112,48.3740188 376.043006,48.8353944 L377.025,50.3461538 L379.956994,45.8353944 C380.253129,45.3798008 380.743112,45.3740188 381.043006,45.8353944 L386.456994,54.1646056 C386.753129,54.6201992 386.549332,55 385.993404,55 L385.076923,55 L388.454513,60.1657257 C388.754594,60.6246731 388.551192,61 387.997559,61 L386.5,61 L389.498535,66.1403463 C389.770355,66.6063232 389.554626,67 389.005229,67 L383.25,67 L384.498535,69.1403463 C384.770355,69.6063232 384.554626,70 384.005229,70 L381,70 L381,74 L380,74 L380,70 L376,70 L376,75 L375,75 L375,70 L371,70 L371,74 L370,74 L370,70 Z M368.333333,66 L369.5,64 L368.002441,64 C367.44695,64 367.244223,63.6264827 367.545487,63.1657257 L370.923077,58 L370.006596,58 C369.446026,58 369.243112,57.6259812 369.543006,57.1646056 L373.389597,51.2467733 L370.496826,46.7983398 L365.820007,54 L366.249061,54 C367.079812,54 367.39072,54.5537109 366.929713,55.2577966 L363.824707,60 L364.720098,60 C365.553622,60 365.895198,60.5753052 365.473198,61.3019106 L362.744629,66 L368.333333,66 Z M377.609189,51.2449058 L381.456994,57.1646056 C381.753129,57.6201992 381.549332,58 380.993404,58 L380.076923,58 L383.454513,63.1657257 C383.754594,63.6246731 383.551192,64 382.997559,64 L381.5,64 L382.666667,66 L388.259995,66 L385.531425,61.3019106 C385.113827,60.5828852 385.445139,60 386.284573,60 L387.179993,60 L384.074987,55.2577966 C383.62015,54.5631347 383.925949,54 384.751982,54 L385.179993,54 L380.496826,46.7983398 L377.609189,51.2449058 Z M369.720098,63 C370.553622,63 370.895198,63.5753052 370.473198,64.3019106 L367.744629,69 L383.259995,69 L380.531425,64.3019106 C380.113827,63.5828852 380.445139,63 381.284573,63 L382.179993,63 L379.074987,58.2577966 C378.62015,57.5631347 378.925949,57 379.751982,57 L380.179993,57 L375.496826,49.7983398 L370.820007,57 L371.249061,57 C372.079812,57 372.39072,57.5537109 371.929713,58.2577966 L368.824707,63 L369.720098,63 Z" sketch:type="MSShapeGroup"/></g></g></svg>